<?xml version="1.0" encoding="utf-8"?>
<!-- Generator: Adobe Illustrator 24.0.3, SVG Export Plug-In . SVG Version: 6.00 Build 0)  -->
<svg version="1.1" id="Layer_1" xmlns="http://www.w3.org/2000/svg" xmlns:xlink="http://www.w3.org/1999/xlink" x="0px" y="0px"
	 viewBox="0 0 792 432" style="enable-background:new 0 0 792 432;" xml:space="preserve">
<style type="text/css">
	.st0{fill:#FFFFFF;stroke:#FBB03B;stroke-miterlimit:10;}
	.st1{fill:#FFCD61;stroke:#FBB03B;stroke-width:0.5;stroke-miterlimit:10;}
	.st2{fill:#F7A6AF;stroke:#FBB03B;stroke-miterlimit:10;}
	.st3{fill:#F595A6;stroke:#FBB03B;stroke-width:0.5;stroke-miterlimit:10;}
	.st4{fill:#F79573;stroke:#FBB03B;stroke-width:0.5;stroke-miterlimit:10;}
	.st5{fill:#F79564;stroke:#FBB03B;stroke-width:0.5;stroke-miterlimit:10;}
	.st6{fill:#F38188;stroke:#FBB03B;stroke-width:0.5;stroke-miterlimit:10;}
	.st7{fill:#F58770;stroke:#FBB03B;stroke-width:0.5;stroke-miterlimit:10;}
	.st8{fill:#F38196;stroke:#FBB03B;stroke-width:0.5;stroke-miterlimit:10;}
	.st9{fill:#F68851;stroke:#FBB03B;stroke-width:0.5;stroke-miterlimit:10;}
	.st10{fill:#F68959;stroke:#FBB03B;stroke-width:0.5;stroke-miterlimit:10;}
	.st11{fill:#E2C7E0;stroke:#DD9FC7;stroke-miterlimit:10;}
	.st12{fill:#B0A9D3;}
	.st13{font-family:'Phosphate-Inline';}
	.st14{font-size:164.6737px;}
	.st15{font-size:50.5543px;}
	.st16{fill:#696DB2;}
	.st17{font-size:49.486px;}
	.st18{font-size:163.0805px;}
</style>
<g>
	<g id="Layer_1_1_">
		<path class="st0" d="M752.94,391.33"/>
		<polyline class="st1" points="181.44,57.77 244.92,67.31 285.11,22.84 389.77,336.66 360.71,350.75 		"/>
		<polyline class="st1" points="657.44,85.1 672.92,148.01 738.49,172.97 494,362.5 466.93,352.93 		"/>
		<path class="st2" d="M231.09,148.98"/>
		<path class="st2" d="M465.46,92.87"/>
		<path class="st2" d="M445.77,319.45"/>
		<polyline class="st3" points="540.94,31.08 586.69,83.99 656.5,85.28 468.45,351.29 436.21,340.96 		"/>
		<polyline class="st4" points="74.7,131.39 333.46,366.97 361.38,350.48 182.11,57.51 152.26,115.66 74.7,131.39 		"/>
		<polyline class="st3" points="411.89,12.74 411.89,65.63 411.89,330.97 389.32,338.74 285.61,23.33 358.35,46.02 411.89,12.74 		
			"/>
		<polyline class="st5" points="411.89,12.74 472.84,45.7 540.94,31.08 463.15,259.97 436.21,339.62 411.89,330.97 411.89,249.6 		
			"/>
		<path class="st2" d="M495.12,392.11"/>
		<polygon class="st6" points="1.21,327.52 31.18,304.46 16.41,233.14 324.27,380.09 		"/>
		<polyline class="st7" points="739.15,172.94 738.09,222.89 775.68,252.55 504.53,378.44 494.67,362.45 		"/>
		<polyline class="st8" points="776.68,252.69 762.53,308.48 787.67,328.12 502.42,393.98 505.53,378.59 		"/>
		<polyline class="st1" points="1.21,327.57 15.26,360.86 1.21,380.14 319.4,393.16 322.63,380.14 		"/>
		<path class="st9" d="M326.14,360c0,0,0,0,11.13,13.26l-13.49,7.02L16.38,233.11l48.98-39.05l9.81-62.54L333.93,367.1"/>
		<polyline class="st10" points="503.26,393.98 790.79,385.92 777.55,361.05 788.53,328.12 		"/>
		<path class="st0" d="M41.76,362.6"/>
		<path class="st2" d="M477.07,357.68"/>
		<path class="st2" d="M298.72,365.25"/>
		<path class="st2" d="M485.55,362.5"/>
	</g>
	<g id="Layer_2_1_">
		<path class="st11" d="M179.23,326.93c-12.66-7.32-25.34-14.62-38-21.94c-13.49-24.44-8.37-54.02,9.09-68.41
			c14.85-12.24,38.92-13.74,51.29-3.68c3.32,2.72,5.66,6.13,7.65,5.3c4.2-1.75-0.67-19.26-0.95-39.77
			c-0.12-7.85-0.4-28.66,6.95-45.63c11.45-26.41,41.75-44.29,71.24-44.12c4.42,0.03,38.43,0.73,57.15,24.9
			c6.11,7.9,9.66,17.13,13.46,16.27c5.59-1.27-0.32-19.69,15.13-29.9c30.53-20.19,80.44-16.14,94.57-4.92
			c20.84,16.54-24.91,23.44-13.29,27.91c8.99,3.47,0,0,29.03-9.89c32.41-11.05,65.22,16.62,67.38,18.49
			c21.93,19.01,33.56,49.39,31.25,76.1c-2.31,27.18-18.53,44.64-12.17,51.41c5.14,5.45,15.85-5.57,34.72-3.57
			c21.16,2.25,41.9,19.79,40.97,33.26c-0.81,11.54-17.21,15.94-15.52,23.07c1.32,5.59,12.02,5.3,29.7,10.75
			c16.84,5.19,35.78,11.02,38,21.94c2.25,10.94-12.14,27.73-28.69,31.86c-20.79,5.22-30.5-13.12-56.53-13.04
			c-18.83,0.05-71.68,18.56-45.1,17.99c25.75-0.57-65.22,39.18-100.24,2.23c-13.21-13.92,0,0-41.35,9.2
			c-43.04,9.57-90.65-2.88-85.8-22.94c0.81-3.39-28.29,38.53-77.71,17.86c-31.29-13.09-36.96-41.17-70.66-44.02
			c-13.24-1.13-13.49,3.12-32.04,3.5c-34.72,0.73-72.48-13.31-72.94-26.91c-0.35-10.59,22.03-18.88,26.3-20.44
			C142.49,308.56,170.66,322.33,179.23,326.93z"/>
		<text transform="matrix(0.314 0 0 1 239.5042 338.4622)" class="st12 st13 st14">new school</text>
		<path class="st11" d="M216.61,311.58c-7.18-0.54-13.81-3.82-17.93-9.67c-2.51-3.57-6.14-7.23-11.33-9.76
			c-11.01-5.32-21.73-1.97-23.84-1.24c-2.48,0.85-4.96,2.1-7.3,3.44c-6.48,3.82-11.22,10.35-12.72,17.77
			c-0.52,2.55-1.56,4.9-3.46,6.54c-3.11,2.67-6.4,1.58-14.5,2.1c-7.93,0.51-15.94,1-23,5.52c-5.36,3.44-12.4,10.62-12.22,18.36
			c0.17,6.92,5.99,10.22,4.44,12.8c-1.96,3.22-11.15-2.07-20.56,0.78c-7.45,2.25-15.3,9.27-17.04,17.32
			c-1.36,6.37,1.93,9.82-0.69,12.99c-2.74,3.3-7.23,0.75-14.82,3.37c-6.78,2.32-13.46,7.85-12.77,10.35
			c1.04,3.77,17.39-3.5,37.43,2.88c9.83,3.12,9.69,6.07,16.26,6.15c12.66,0.13,17.73-10.72,29.38-10.7
			c8.07,0.03,8.77,5.27,18.05,9.17c24.48,10.27,47.66,5.62,72.54-5.27c4.47-1.97,7.2,1.72,13.84,5.65
			c13.26,7.85,20.59,6.54,29.58,3.79c13.76-4.17,16.49-17.77,25.8-16.72c4.52,0.51,4.12,3.77,12.02,7.87
			c3.48,1.8,15.45,8.04,23.55,2.47c4.32-2.98,7.53-9.32,5.82-13.17c-2.11-4.75-9.81-1.32-16.26-6.15
			c-8.67-6.5-10.18-14.52-9.78-27.08c0.35-10.72-21.45-19.89-31.94-9.57l0,0c0,0-10.35,9.32-14.56,7.34
			c-4.07-1.93,1.32-12.82-3.11-28.26c-1.21-4.2-2.68-9.3-6.86-13.31C226.57,313.4,221.37,311.93,216.61,311.58z"/>
		<path class="st11" d="M694.15,315.66c-6.86-0.97-13.01-4.49-16.61-10.27c-2.19-3.52-5.44-7.24-10.26-9.92
			c-10.23-5.72-20.73-3.22-22.8-2.69c-2.46,0.65-4.9,1.67-7.2,2.8c-6.46,3.2-11.42,9.09-13.32,15.97c-0.67,2.4-1.81,4.55-3.72,5.94
			c-3.15,2.32-6.26,1.1-14.08,1.07c-7.65-0.03-15.37-0.05-22.4,3.77c-5.36,2.9-12.57,9.25-12.89,16.56
			c-0.29,6.54,5.1,10.02,3.46,12.34c-2.08,2.93-10.58-2.67-19.75-0.54c-7.3,1.67-15.28,7.8-17.44,15.27
			c-1.69,5.92,1.24,9.39-1.49,12.21c-2.83,2.95-7,0.27-14.45,2.23c-6.63,1.75-13.41,6.57-12.89,8.97c0.75,3.6,16.92-2.2,35.72,5.08
			c9.26,3.57,8.91,6.37,15.22,6.85c12.14,0.95,17.71-9.04,28.86-8.25c7.75,0.54,8.1,5.54,16.74,9.82
			c22.83,11.24,45.38,8.34,69.91-0.4c4.42-1.55,6.8,2.07,12.94,6.19c12.22,8.25,19.32,7.45,28.14,5.45
			c13.46-3.07,16.96-15.74,25.8-14.17c4.32,0.75,3.72,3.82,11.05,8.17c3.23,1.93,14.33,8.57,22.43,3.85
			c4.35-2.53,7.82-8.34,6.43-12.07c-1.73-4.62-9.31-1.85-15.22-6.85c-7.93-6.67-8.82-14.36-7.67-26.19
			c1.01-10.11-19.32-20.14-30.05-11.05l0,0c0,0-10.53,8.17-14.41,6.02c-3.8-2.1,2.08-12.02-1.21-26.89
			c-0.89-4.03-1.99-8.95-5.74-13.02C703.6,318.03,698.7,316.31,694.15,315.66z"/>
		<text transform="matrix(0.6408 0 0 1 363.5399 211.1243)" class="st12 st13 st15">the</text>
		<text transform="matrix(0.611 0 0 1 365.2542 210.2361)" class="st16 st13 st17">the</text>
		<text transform="matrix(0.3108 0 0 1 241.5369 338.7435)" class="st16 st13 st18">new school</text>
	</g>
</g>
</svg>
