<?xml version="1.0" encoding="utf-8"?>
<!-- Generator: Adobe Illustrator 24.0.3, SVG Export Plug-In . SVG Version: 6.00 Build 0)  -->
<svg version="1.1" id="Layer_1" xmlns="http://www.w3.org/2000/svg" xmlns:xlink="http://www.w3.org/1999/xlink" x="0px" y="0px"
	 viewBox="0 0 792 432" style="enable-background:new 0 0 792 432;" xml:space="preserve">
<style type="text/css">
	.st0{fill:#FFFFFF;stroke:#FBB03B;stroke-miterlimit:10;}
	.st1{fill:#FFCD5F;stroke:#FBB03B;stroke-width:0.5;stroke-miterlimit:10;}
	.st2{fill:#F7A6AF;stroke:#FBB03B;stroke-miterlimit:10;}
	.st3{fill:#FF97A6;}
	.st4{fill:#FBB03B;}
	.st5{fill:#FF9671;stroke:#FBB03B;stroke-width:0.5;stroke-miterlimit:10;}
	.st6{fill:#FF97A6;stroke:#FBB03B;stroke-width:0.5;stroke-miterlimit:10;}
	.st7{fill:#FF9661;stroke:#FBB03B;stroke-width:0.5;stroke-miterlimit:10;}
	.st8{fill:#F78188;stroke:#FBB03B;stroke-width:0.5;stroke-miterlimit:10;}
	.st9{fill:#F7866F;stroke:#FBB03B;stroke-width:0.5;stroke-miterlimit:10;}
	.st10{fill:#FF8295;stroke:#FBB03B;stroke-width:0.5;stroke-miterlimit:10;}
	.st11{fill:#FF884D;stroke:#FBB03B;stroke-width:0.5;stroke-miterlimit:10;}
	.st12{fill:#FF8955;stroke:#FBB03B;stroke-width:0.5;stroke-miterlimit:10;}
	.st13{fill:#EBC7F9;stroke:#FF99FA;stroke-miterlimit:10;}
	.st14{fill:#B0AAF9;}
	.st15{font-family:'Phosphate-Inline';}
	.st16{font-size:163.46px;}
	.st17{fill:#7070FC;}
	.st18{font-size:161.8784px;}
</style>
<path class="st0" d="M726.4,389.2"/>
<polyline class="st1" points="197.4,58.1 256.1,67.6 293.3,23.5 390.2,335 363.3,349 "/>
<polyline class="st1" points="638,85.3 652.4,147.7 713,172.5 486.7,360.6 461.7,351.1 "/>
<path class="st2" d="M243.3,148.7"/>
<path class="st2" d="M460.3,93"/>
<path class="st2" d="M442.1,317.9"/>
<g>
	<polyline class="st3" points="530.2,31.6 572.5,84.2 637.1,85.5 463.1,349.5 433.2,339.3 	"/>
	<polygon class="st4" points="530.4,31.5 572.5,84.2 572.5,84.2 637.1,85.2 637.6,85.2 637.3,85.6 463.3,349.6 463.2,349.8 
		463,349.7 433.2,339.5 433.3,339 463.1,349.3 462.9,349.3 636.9,85.3 637.1,85.7 572.5,84.2 572.5,84.2 530,31.8 	"/>
</g>
<polyline class="st5" points="98.5,131.2 338.1,365.1 363.9,348.7 198,57.9 170.3,115.6 98.5,131.2 "/>
<polyline class="st6" points="410.7,13.4 410.7,65.9 410.7,329.3 389.8,337 293.8,24 361.1,46.5 410.7,13.4 "/>
<polyline class="st7" points="410.7,13.4 467.1,46.2 530.2,31.6 458.1,258.9 433.2,337.9 410.7,329.3 410.7,248.6 "/>
<path class="st2" d="M487.8,390"/>
<polygon class="st8" points="30.5,325.9 58.3,303 44.6,232.2 329.6,378.1 "/>
<polyline class="st9" points="713.7,172.5 712.7,222 747.5,251.5 496.4,376.5 487.3,360.6 "/>
<polyline class="st10" points="748.4,251.6 735.3,307 758.6,326.5 494.5,391.9 497.4,376.6 "/>
<polyline class="st1" points="30.5,326 43.5,359 30.5,378.1 325.1,391 328.1,378.1 "/>
<path class="st11" d="M331.3,358.2c0,0,0,0,10.3,13.2l-12.5,7L44.6,232.2l45.3-38.8l9.1-62.1l239.5,233.8"/>
<polyline class="st12" points="495.3,391.9 761.5,383.9 749.2,359.2 759.4,326.5 "/>
<path class="st0" d="M68,360.7"/>
<path class="st2" d="M471,355.8"/>
<path class="st2" d="M305.9,363.4"/>
<path class="st2" d="M478.9,360.6"/>
<path class="st13" d="M195.3,325.3c-11.7-7.3-23.5-14.5-35.2-21.8c-12.5-24.3-7.7-53.6,8.4-67.9c13.7-12.1,36-13.6,47.5-3.6
	c3.1,2.7,5.2,6.1,7.1,5.3c3.9-1.7-0.6-19.1-0.9-39.5c-0.1-7.8-0.4-28.4,6.4-45.3c10.6-26.2,38.6-44,65.9-43.8
	c4.1,0,35.6,0.7,52.9,24.7c5.7,7.8,9,17,12.5,16.1c5.2-1.3-0.3-19.5,14-29.7c28.3-20,74.5-16,87.5-4.9
	c19.3,16.4-23.1,23.3-12.3,27.7c8.3,3.4,0,0,26.9-9.8c30-11,60.4,16.5,62.4,18.4c20.3,18.9,31.1,49,28.9,75.5
	c-2.1,27-17.2,44.3-11.3,51c4.8,5.4,14.7-5.5,32.1-3.5c19.6,2.2,38.8,19.6,37.9,33c-0.8,11.4-15.9,15.8-14.4,22.9
	c1.2,5.6,11.1,5.3,27.5,10.7c15.6,5.1,33.1,10.9,35.2,21.8c2.1,10.9-11.2,27.5-26.6,31.6c-19.2,5.2-28.2-13-52.3-12.9
	c-17.4,0.1-66.3,18.4-41.7,17.9c23.8-0.6-60.4,38.9-92.8,2.2c-12.2-13.8,0,0-38.3,9.1c-39.8,9.5-83.9-2.8-79.4-22.8
	c0.8-3.4-26.2,38.2-71.9,17.7c-29-13-34.2-40.9-65.4-43.7c-12.3-1.1-12.5,3.1-29.7,3.5c-32.1,0.7-67.1-13.2-67.5-26.7
	c-0.3-10.5,20.4-18.7,24.3-20.3C161.3,307.1,187.4,320.7,195.3,325.3z"/>
<text transform="matrix(0.2929 0 0 1 275.9729 326.4993)" class="st14 st15 st16">sydney le</text>
<path class="st13" d="M229.9,310.1c-6.6-0.5-12.8-3.8-16.6-9.6c-2.3-3.5-5.7-7.2-10.5-9.7c-10.2-5.3-20.1-2-22.1-1.2
	c-2.3,0.9-4.6,2.1-6.7,3.4c-6,3.8-10.4,10.3-11.8,17.6c-0.5,2.5-1.4,4.9-3.2,6.5c-2.9,2.6-5.9,1.6-13.4,2.1
	c-7.3,0.5-14.8,1-21.3,5.5c-5,3.4-11.5,10.6-11.3,18.2c0.2,6.9,5.5,10.1,4.1,12.7c-1.8,3.2-10.3-2-19,0.8
	c-6.9,2.2-14.2,9.2-15.8,17.2c-1.3,6.3,1.8,9.7-0.6,12.9c-2.5,3.3-6.7,0.8-13.7,3.3c-6.3,2.3-12.5,7.8-11.8,10.3
	c1,3.7,16.1-3.5,34.7,2.9c9.1,3.1,9,6,15.1,6.1c11.7,0.1,16.4-10.7,27.2-10.6c7.5,0,8.1,5.2,16.7,9.1c22.6,10.2,44.1,5.6,67.1-5.2
	c4.1-1.9,6.7,1.7,12.8,5.6c12.3,7.8,19,6.5,27.4,3.8c12.7-4.1,15.3-17.6,23.9-16.6c4.2,0.5,3.8,3.7,11.1,7.8
	c3.2,1.8,14.3,8,21.8,2.5c4-3,7-9.3,5.4-13.1c-1.9-4.7-9.1-1.3-15.1-6.1c-8-6.4-9.4-14.4-9-26.9c0.3-10.6-19.9-19.8-29.6-9.5l0,0
	c0,0-9.6,9.3-13.5,7.3c-3.8-1.9,1.2-12.7-2.9-28.1c-1.1-4.2-2.5-9.2-6.3-13.2C239.1,311.9,234.3,310.4,229.9,310.1z"/>
<path class="st13" d="M672,314.1c-6.3-1-12-4.5-15.4-10.2c-2-3.5-5-7.2-9.5-9.9c-9.5-5.7-19.2-3.2-21.1-2.7
	c-2.3,0.7-4.5,1.6-6.7,2.8c-6,3.2-10.6,9-12.3,15.9c-0.6,2.4-1.7,4.5-3.5,5.9c-2.9,2.3-5.8,1.1-13,1.1c-7.1,0-14.2-0.1-20.7,3.7
	c-5,2.9-11.6,9.2-11.9,16.4c-0.3,6.5,4.7,10,3.2,12.3c-1.9,2.9-9.8-2.6-18.3-0.5c-6.7,1.7-14.1,7.7-16.1,15.2
	c-1.6,5.9,1.1,9.3-1.4,12.1c-2.6,2.9-6.5,0.3-13.4,2.2c-6.1,1.7-12.4,6.5-11.9,8.9c0.7,3.6,15.7-2.2,33.1,5
	c8.6,3.6,8.2,6.3,14.1,6.8c11.2,0.9,16.4-9,26.7-8.2c7.2,0.5,7.5,5.5,15.5,9.7c21.1,11.2,42,8.3,64.7-0.4c4.1-1.6,6.3,2.1,12,6.2
	c11.3,8.2,17.9,7.4,26,5.4c12.5-3,15.7-15.6,23.9-14.1c4,0.8,3.4,3.8,10.2,8.1c3,1.9,13.3,8.5,20.8,3.8c4-2.5,7.2-8.3,6-12
	c-1.6-4.6-8.6-1.9-14.1-6.8c-7.3-6.6-8.2-14.3-7.1-26c0.9-10-17.9-20-27.8-11l0,0c0,0-9.7,8.1-13.4,6c-3.5-2.1,1.9-11.9-1.1-26.7
	c-0.8-4-1.8-8.9-5.3-12.9C680.7,316.5,676.2,314.8,672,314.1z"/>
<text transform="matrix(0.2899 0 0 1 277.8538 326.7767)" class="st17 st15 st18">SYdney Lee</text>
</svg>
