<?xml version="1.0" encoding="utf-8"?>
<!-- Generator: Adobe Illustrator 24.0.3, SVG Export Plug-In . SVG Version: 6.00 Build 0)  -->
<svg version="1.1" id="Layer_1" xmlns="http://www.w3.org/2000/svg" xmlns:xlink="http://www.w3.org/1999/xlink" x="0px" y="0px"
	 viewBox="0 0 792 612" style="enable-background:new 0 0 792 612;" xml:space="preserve">
<style type="text/css">
	.st0{fill:#FFFFFF;stroke:#FBB03B;stroke-miterlimit:10;}
	.st1{fill:#FFCD61;stroke:#FBB03B;stroke-width:0.5;stroke-miterlimit:10;}
	.st2{fill:#F7A6AF;stroke:#FBB03B;stroke-miterlimit:10;}
	.st3{fill:#F595A6;stroke:#FBB03B;stroke-width:0.5;stroke-miterlimit:10;}
	.st4{fill:#F79573;stroke:#FBB03B;stroke-width:0.5;stroke-miterlimit:10;}
	.st5{fill:#F79564;stroke:#FBB03B;stroke-width:0.5;stroke-miterlimit:10;}
	.st6{fill:#F38188;stroke:#FBB03B;stroke-width:0.5;stroke-miterlimit:10;}
	.st7{fill:#F58770;stroke:#FBB03B;stroke-width:0.5;stroke-miterlimit:10;}
	.st8{fill:#F38196;stroke:#FBB03B;stroke-width:0.5;stroke-miterlimit:10;}
	.st9{fill:#F68851;stroke:#FBB03B;stroke-width:0.5;stroke-miterlimit:10;}
	.st10{fill:#F68959;stroke:#FBB03B;stroke-width:0.5;stroke-miterlimit:10;}
	.st11{fill:#E2C7E0;stroke:#DD9FC7;stroke-miterlimit:10;}
	.st12{fill:#B0A9D3;}
	.st13{font-family:'Phosphate-Inline';}
	.st14{font-size:127.1534px;}
	.st15{font-size:39.0357px;}
	.st16{fill:#696DB2;}
	.st17{font-size:38.2108px;}
	.st18{font-size:125.9232px;}
</style>
<g>
	<g id="Layer_1_1_">
		<path class="st0" d="M644.74,414.22"/>
		<polyline class="st1" points="216.41,156.66 263.99,164.03 294.11,129.69 372.55,372.01 350.77,382.89 		"/>
		<polyline class="st1" points="573.17,177.76 584.77,226.34 633.91,245.61 450.67,391.96 430.38,384.57 		"/>
		<path class="st2" d="M253.62,227.09"/>
		<path class="st2" d="M429.28,183.76"/>
		<path class="st2" d="M414.52,358.72"/>
		<polyline class="st3" points="485.85,136.05 520.14,176.91 572.46,177.9 431.52,383.3 407.36,375.33 		"/>
		<polyline class="st4" points="136.41,213.51 330.35,395.41 351.27,382.68 216.91,156.46 194.54,201.36 136.41,213.51 		"/>
		<polyline class="st3" points="389.13,121.89 389.13,162.73 389.13,367.61 372.21,373.61 294.48,130.07 349,147.59 389.13,121.89 
					"/>
		<polyline class="st5" points="389.13,121.89 434.81,147.34 485.85,136.05 427.55,312.79 407.36,374.29 389.13,367.61 
			389.13,304.78 		"/>
		<path class="st2" d="M451.51,414.82"/>
		<polygon class="st6" points="81.33,364.95 103.79,347.14 92.72,292.07 323.46,405.54 		"/>
		<polyline class="st7" points="634.41,245.59 633.61,284.16 661.79,307.06 458.56,404.27 451.17,391.92 		"/>
		<polyline class="st8" points="662.54,307.17 651.93,350.25 670.77,365.41 456.98,416.27 459.31,404.38 		"/>
		<polyline class="st1" points="81.33,364.99 91.86,390.69 81.33,405.58 319.81,415.63 322.23,405.58 		"/>
		<path class="st9" d="M324.86,390.03c0,0,0,0,8.34,10.24l-10.11,5.42L92.7,292.05l36.71-30.15l7.35-48.29l193.94,181.9"/>
		<polyline class="st10" points="457.61,416.27 673.11,410.04 663.19,390.84 671.42,365.41 		"/>
		<path class="st0" d="M111.72,392.04"/>
		<path class="st2" d="M437.98,388.24"/>
		<path class="st2" d="M304.31,394.08"/>
		<path class="st2" d="M444.34,391.96"/>
	</g>
	<g id="Layer_2_1_">
		<path class="st11" d="M214.75,364.49c-9.49-5.65-18.99-11.29-28.48-16.94c-10.11-18.87-6.27-41.71,6.81-52.82
			c11.13-9.45,29.17-10.61,38.44-2.84c2.49,2.1,4.24,4.73,5.73,4.09c3.15-1.35-0.5-14.87-0.71-30.71
			c-0.09-6.06-0.3-22.13,5.21-35.23c8.58-20.39,31.29-34.2,53.39-34.07c3.31,0.02,28.8,0.56,42.83,19.23
			c4.58,6.1,7.24,13.23,10.09,12.56c4.19-0.98-0.24-15.2,11.34-23.09c22.88-15.59,60.29-12.46,70.88-3.8
			c15.62,12.77-18.67,18.1-9.96,21.55c6.74,2.68,0,0,21.76-7.64c24.29-8.53,48.88,12.83,50.5,14.28
			c16.44,14.68,25.15,38.14,23.42,58.76c-1.73,20.99-13.89,34.47-9.12,39.7c3.85,4.21,11.88-4.3,26.02-2.76
			c15.86,1.74,31.4,15.28,30.71,25.68c-0.61,8.91-12.9,12.31-11.63,17.81c0.99,4.32,9.01,4.09,22.26,8.3
			c12.62,4.01,26.82,8.51,28.48,16.94c1.69,8.45-9.1,21.41-21.5,24.6c-15.58,4.03-22.86-10.13-42.37-10.07
			c-14.11,0.04-53.72,14.33-33.8,13.89c19.3-0.44-48.88,30.25-75.13,1.72c-9.9-10.75,0,0-30.99,7.1
			c-32.26,7.39-67.94-2.22-64.31-17.71c0.61-2.62-21.2,29.75-58.24,13.79c-23.45-10.11-27.7-31.79-52.96-33.99
			c-9.92-0.87-10.11,2.41-24.01,2.7c-26.02,0.56-54.32-10.28-54.67-20.78c-0.26-8.18,16.51-14.58,19.71-15.78
			C187.22,350.31,208.33,360.94,214.75,364.49z"/>
		<text transform="matrix(0.3048 0 0 1 259.9277 373.3982)" class="st12 st13 st14">new school</text>
		<path class="st11" d="M242.77,352.64c-5.38-0.42-10.35-2.95-13.44-7.47c-1.88-2.76-4.6-5.58-8.49-7.54
			c-8.25-4.11-16.29-1.52-17.87-0.96c-1.86,0.66-3.72,1.62-5.47,2.66c-4.86,2.95-8.41,7.99-9.53,13.72
			c-0.39,1.97-1.17,3.78-2.59,5.05c-2.33,2.06-4.8,1.22-10.87,1.62c-5.94,0.39-11.95,0.77-17.24,4.26
			c-4.02,2.66-9.29,8.2-9.16,14.18c0.13,5.34,4.49,7.89,3.33,9.88c-1.47,2.49-8.36-1.6-15.41,0.6c-5.58,1.74-11.47,7.16-12.77,13.37
			c-1.02,4.92,1.45,7.58-0.52,10.03c-2.05,2.55-5.42,0.58-11.11,2.6c-5.08,1.79-10.09,6.06-9.57,7.99
			c0.78,2.91,13.03-2.7,28.05,2.22c7.37,2.41,7.26,4.69,12.19,4.75c9.49,0.1,13.29-8.28,22.02-8.26c6.05,0.02,6.57,4.07,13.53,7.08
			c18.35,7.93,35.72,4.34,54.37-4.07c3.35-1.52,5.4,1.33,10.37,4.36c9.94,6.06,15.43,5.05,22.17,2.93
			c10.31-3.22,12.36-13.72,19.34-12.91c3.39,0.39,3.09,2.91,9.01,6.08c2.61,1.39,11.58,6.21,17.65,1.91
			c3.24-2.3,5.64-7.2,4.36-10.17c-1.58-3.67-7.35-1.02-12.19-4.75c-6.5-5.02-7.63-11.21-7.33-20.91
			c0.26-8.28-16.08-15.36-23.94-7.39l0,0c0,0-7.76,7.2-10.91,5.67c-3.05-1.49,0.99-9.9-2.33-21.82c-0.91-3.24-2.01-7.18-5.14-10.28
			C250.23,354.05,246.34,352.91,242.77,352.64z"/>
		<path class="st11" d="M600.68,355.79c-5.14-0.75-9.75-3.47-12.45-7.93c-1.64-2.72-4.08-5.59-7.69-7.66
			c-7.67-4.42-15.54-2.49-17.09-2.08c-1.84,0.5-3.67,1.29-5.4,2.16c-4.84,2.47-8.56,7.02-9.98,12.33c-0.5,1.85-1.36,3.51-2.79,4.59
			c-2.36,1.79-4.69,0.85-10.55,0.83c-5.73-0.02-11.52-0.04-16.79,2.91c-4.02,2.24-9.42,7.14-9.66,12.79
			c-0.22,5.05,3.82,7.74,2.59,9.53c-1.56,2.26-7.93-2.06-14.8-0.42c-5.47,1.29-11.45,6.02-13.07,11.79
			c-1.27,4.57,0.93,7.25-1.12,9.43c-2.12,2.28-5.25,0.21-10.83,1.72c-4.97,1.35-10.05,5.07-9.66,6.93
			c0.56,2.78,12.68-1.7,26.77,3.92c6.94,2.76,6.68,4.92,11.41,5.29c9.1,0.73,13.27-6.98,21.63-6.37c5.81,0.42,6.07,4.28,12.55,7.58
			c17.11,8.68,34.01,6.44,52.4-0.31c3.31-1.2,5.1,1.6,9.7,4.78c9.16,6.37,14.48,5.75,21.09,4.21c10.09-2.37,12.71-12.15,19.34-10.94
			c3.24,0.58,2.79,2.95,8.28,6.31c2.42,1.49,10.74,6.62,16.81,2.97c3.26-1.95,5.86-6.44,4.82-9.32c-1.3-3.57-6.98-1.43-11.41-5.29
			c-5.94-5.15-6.61-11.09-5.75-20.22c0.76-7.81-14.48-15.55-22.52-8.53l0,0c0,0-7.89,6.31-10.8,4.65
			c-2.85-1.62,1.56-9.28-0.91-20.76c-0.67-3.11-1.49-6.91-4.3-10.05C607.76,357.62,604.09,356.29,600.68,355.79z"/>
		<text transform="matrix(0.622 0 0 1 352.8911 275.0739)" class="st12 st13 st15">the</text>
		<text transform="matrix(0.5931 0 0 1 354.1763 274.3874)" class="st16 st13 st17">the</text>
		<text transform="matrix(0.3017 0 0 1 261.4512 373.615)" class="st16 st13 st18">new school</text>
	</g>
</g>
</svg>
